<?xml version="1.0" encoding="utf-8"?>
<!-- Generator: Adobe Illustrator 17.0.0, SVG Export Plug-In . SVG Version: 6.00 Build 0)  -->
<!DOCTYPE svg PUBLIC "-//W3C//DTD SVG 1.1//EN" "http://www.w3.org/Graphics/SVG/1.1/DTD/svg11.dtd">
<svg version="1.1" id="Layer_1" xmlns="http://www.w3.org/2000/svg" xmlns:xlink="http://www.w3.org/1999/xlink" x="0px" y="0px"
	 width="468.38px" height="32.93px" viewBox="0 0 468.38 32.93" style="enable-background:new 0 0 468.38 32.93;"
	 xml:space="preserve">
<style type="text/css">
	.st0{fill:none;}
	.st1{fill:#FFFFFF;}
</style>
<g>
	<rect x="0" y="1.99" class="st0" width="468.38" height="30.94"/>
	<path class="st1" d="M3.63,12.01V3.18h-3.3V1.99h7.94v1.18H4.96v8.84H3.63z"/>
	<path class="st1" d="M9.47,12.01V1.99h1.23v3.6c0.57-0.67,1.3-1,2.17-1c0.54,0,1,0.11,1.4,0.32s0.68,0.5,0.85,0.88
		s0.26,0.92,0.26,1.63v4.6h-1.23v-4.6c0-0.62-0.13-1.06-0.4-1.34s-0.64-0.42-1.13-0.42c-0.36,0-0.71,0.09-1.03,0.28
		s-0.55,0.45-0.69,0.77s-0.21,0.77-0.21,1.34v3.97H9.47z"/>
	<path class="st1" d="M22.23,9.68l1.27,0.16c-0.2,0.74-0.57,1.32-1.11,1.73s-1.23,0.62-2.08,0.62c-1.06,0-1.9-0.33-2.53-0.98
		s-0.93-1.57-0.93-2.75c0-1.22,0.31-2.17,0.94-2.84s1.44-1.01,2.45-1.01c0.97,0,1.76,0.33,2.38,0.99s0.92,1.59,0.92,2.79
		c0,0.07,0,0.18-0.01,0.33h-5.41c0.05,0.8,0.27,1.41,0.68,1.83s0.91,0.64,1.52,0.64c0.45,0,0.84-0.12,1.16-0.36
		S22.04,10.2,22.23,9.68z M18.19,7.69h4.05c-0.05-0.61-0.21-1.07-0.46-1.37c-0.39-0.47-0.9-0.71-1.52-0.71
		c-0.56,0-1.04,0.19-1.43,0.57S18.23,7.05,18.19,7.69z"/>
	<path class="st1" d="M31.62,10.91L31.8,12c-0.35,0.07-0.66,0.11-0.93,0.11c-0.45,0-0.79-0.07-1.04-0.21s-0.42-0.33-0.52-0.56
		s-0.15-0.71-0.15-1.45V5.71h-0.9V4.75h0.9v-1.8l1.22-0.74v2.54h1.24v0.96h-1.24v4.25c0,0.35,0.02,0.58,0.06,0.68
		s0.11,0.18,0.21,0.24s0.24,0.09,0.42,0.09C31.22,10.96,31.4,10.95,31.62,10.91z"/>
	<path class="st1" d="M32.83,3.41V1.99h1.23v1.42H32.83z M32.83,12.01V4.75h1.23v7.26H32.83z"/>
	<path class="st1" d="M38.62,10.91L38.8,12c-0.35,0.07-0.66,0.11-0.93,0.11c-0.45,0-0.79-0.07-1.04-0.21s-0.42-0.33-0.52-0.56
		s-0.15-0.71-0.15-1.45V5.71h-0.9V4.75h0.9v-1.8l1.22-0.74v2.54h1.24v0.96h-1.24v4.25c0,0.35,0.02,0.58,0.06,0.68
		s0.11,0.18,0.21,0.24s0.24,0.09,0.42,0.09C38.22,10.96,38.4,10.95,38.62,10.91z"/>
	<path class="st1" d="M39.8,12.01V1.99h1.23v10.02H39.8z"/>
	<path class="st1" d="M47.91,9.68l1.27,0.16c-0.2,0.74-0.57,1.32-1.11,1.73s-1.23,0.62-2.08,0.62c-1.06,0-1.9-0.33-2.53-0.98
		s-0.93-1.57-0.93-2.75c0-1.22,0.31-2.17,0.94-2.84s1.44-1.01,2.45-1.01c0.97,0,1.76,0.33,2.38,0.99s0.92,1.59,0.92,2.79
		c0,0.07,0,0.18-0.01,0.33H43.8c0.05,0.8,0.27,1.41,0.68,1.83s0.91,0.64,1.52,0.64c0.45,0,0.84-0.12,1.16-0.36
		S47.72,10.2,47.91,9.68z M43.87,7.69h4.05c-0.05-0.61-0.21-1.07-0.46-1.37c-0.39-0.47-0.9-0.71-1.52-0.71
		c-0.56,0-1.04,0.19-1.43,0.57S43.91,7.05,43.87,7.69z"/>
	<path class="st1" d="M57.3,10.91L57.48,12c-0.35,0.07-0.66,0.11-0.93,0.11c-0.45,0-0.79-0.07-1.04-0.21s-0.42-0.33-0.52-0.56
		s-0.15-0.71-0.15-1.45V5.71h-0.9V4.75h0.9v-1.8l1.22-0.74v2.54h1.24v0.96h-1.24v4.25c0,0.35,0.02,0.58,0.06,0.68
		s0.11,0.18,0.21,0.24s0.24,0.09,0.42,0.09C56.9,10.96,57.08,10.95,57.3,10.91z"/>
	<path class="st1" d="M63.47,9.68l1.27,0.16c-0.2,0.74-0.57,1.32-1.11,1.73s-1.23,0.62-2.08,0.62c-1.06,0-1.9-0.33-2.53-0.98
		s-0.93-1.57-0.93-2.75c0-1.22,0.31-2.17,0.94-2.84s1.44-1.01,2.45-1.01c0.97,0,1.76,0.33,2.38,0.99s0.92,1.59,0.92,2.79
		c0,0.07,0,0.18-0.01,0.33h-5.41c0.05,0.8,0.27,1.41,0.68,1.83s0.91,0.64,1.52,0.64c0.45,0,0.84-0.12,1.16-0.36
		S63.28,10.2,63.47,9.68z M59.43,7.69h4.05c-0.05-0.61-0.21-1.07-0.46-1.37c-0.39-0.47-0.9-0.71-1.52-0.71
		c-0.56,0-1.04,0.19-1.43,0.57S59.47,7.05,59.43,7.69z"/>
	<path class="st1" d="M65.47,12.01l2.65-3.77l-2.45-3.49h1.54l1.11,1.7c0.21,0.32,0.38,0.59,0.51,0.81c0.2-0.3,0.39-0.57,0.55-0.8
		l1.22-1.72h1.47l-2.51,3.42l2.7,3.84h-1.51l-1.49-2.26l-0.4-0.61l-1.91,2.86H65.47z"/>
	<path class="st1" d="M75.97,10.91L76.15,12c-0.35,0.07-0.66,0.11-0.93,0.11c-0.45,0-0.79-0.07-1.04-0.21s-0.42-0.33-0.52-0.56
		s-0.15-0.71-0.15-1.45V5.71h-0.9V4.75h0.9v-1.8l1.22-0.74v2.54h1.24v0.96h-1.24v4.25c0,0.35,0.02,0.58,0.06,0.68
		s0.11,0.18,0.21,0.24s0.24,0.09,0.42,0.09C75.57,10.96,75.75,10.95,75.97,10.91z"/>
	<path class="st1" d="M81.07,3.41V1.99h1.23v1.42H81.07z M81.07,12.01V4.75h1.23v7.26H81.07z"/>
	<path class="st1" d="M83.69,9.85l1.22-0.19c0.07,0.49,0.26,0.86,0.57,1.12s0.75,0.39,1.31,0.39c0.56,0,0.98-0.12,1.26-0.35
		s0.41-0.5,0.41-0.81c0-0.28-0.12-0.5-0.36-0.66c-0.17-0.11-0.59-0.25-1.26-0.42c-0.9-0.23-1.53-0.42-1.88-0.59s-0.61-0.4-0.79-0.69
		s-0.27-0.62-0.27-0.97c0-0.32,0.07-0.62,0.22-0.9s0.35-0.5,0.6-0.69c0.19-0.14,0.45-0.26,0.78-0.36s0.68-0.15,1.06-0.15
		c0.57,0,1.07,0.08,1.5,0.25s0.75,0.39,0.95,0.67s0.35,0.66,0.42,1.12l-1.2,0.16c-0.05-0.37-0.21-0.67-0.48-0.88
		S87.13,5.6,86.65,5.6c-0.56,0-0.97,0.09-1.21,0.28s-0.36,0.41-0.36,0.66c0,0.16,0.05,0.3,0.15,0.43c0.1,0.13,0.26,0.24,0.47,0.33
		c0.12,0.05,0.49,0.15,1.09,0.31c0.87,0.23,1.48,0.42,1.82,0.57s0.61,0.36,0.81,0.65s0.29,0.63,0.29,1.05c0,0.41-0.12,0.8-0.36,1.16
		s-0.58,0.64-1.04,0.84s-0.96,0.3-1.53,0.3c-0.94,0-1.66-0.2-2.16-0.59S83.82,10.62,83.69,9.85z"/>
	<path class="st1" d="M99.8,11.12c-0.46,0.39-0.89,0.66-1.32,0.82s-0.87,0.24-1.36,0.24c-0.8,0-1.41-0.19-1.84-0.58
		s-0.64-0.89-0.64-1.49c0-0.36,0.08-0.68,0.24-0.97s0.37-0.53,0.64-0.71s0.56-0.31,0.89-0.4c0.24-0.06,0.61-0.13,1.09-0.18
		c0.99-0.12,1.73-0.26,2.19-0.42c0-0.17,0.01-0.28,0.01-0.32c0-0.5-0.12-0.85-0.35-1.06c-0.31-0.28-0.78-0.42-1.4-0.42
		c-0.58,0-1.01,0.1-1.28,0.3s-0.48,0.56-0.61,1.08l-1.2-0.16c0.11-0.52,0.29-0.93,0.54-1.25s0.61-0.56,1.09-0.73
		s1.02-0.26,1.65-0.26c0.62,0,1.12,0.07,1.51,0.22s0.67,0.33,0.85,0.55s0.31,0.5,0.38,0.84c0.04,0.21,0.06,0.59,0.06,1.13v1.64
		c0,1.14,0.03,1.87,0.08,2.17s0.16,0.59,0.31,0.87h-1.29C99.92,11.76,99.84,11.46,99.8,11.12z M99.7,8.37
		c-0.45,0.18-1.12,0.34-2.01,0.46c-0.51,0.07-0.86,0.15-1.07,0.25s-0.37,0.22-0.49,0.4s-0.17,0.37-0.17,0.58
		c0,0.33,0.12,0.6,0.37,0.82s0.61,0.33,1.09,0.33c0.47,0,0.9-0.1,1.26-0.31s0.64-0.49,0.81-0.85c0.13-0.28,0.2-0.69,0.2-1.23V8.37z"
		/>
	<path class="st1" d="M102.85,12.01V4.75h1.11v1.03c0.53-0.8,1.3-1.2,2.31-1.2c0.44,0,0.84,0.08,1.21,0.24s0.64,0.36,0.82,0.62
		s0.31,0.56,0.38,0.91c0.05,0.23,0.07,0.63,0.07,1.2v4.46h-1.23V7.6c0-0.5-0.05-0.88-0.14-1.12s-0.27-0.45-0.51-0.59
		s-0.53-0.22-0.86-0.22c-0.52,0-0.98,0.17-1.36,0.5s-0.57,0.96-0.57,1.89v3.96H102.85z"/>
	<path class="st1" d="M114.54,3.41V1.99h1.23v1.42H114.54z M114.54,12.01V4.75h1.23v7.26H114.54z"/>
	<path class="st1" d="M117.64,12.01V4.75h1.1v1.02c0.23-0.36,0.53-0.64,0.91-0.86s0.81-0.32,1.29-0.32c0.54,0,0.98,0.11,1.32,0.33
		s0.59,0.54,0.73,0.94c0.57-0.85,1.32-1.27,2.24-1.27c0.72,0,1.27,0.2,1.66,0.6s0.58,1.01,0.58,1.84v4.98h-1.22V7.44
		c0-0.49-0.04-0.85-0.12-1.06s-0.22-0.39-0.43-0.52s-0.46-0.2-0.74-0.2c-0.51,0-0.93,0.17-1.27,0.51s-0.51,0.88-0.51,1.63v4.22
		h-1.23V7.3c0-0.55-0.1-0.96-0.3-1.23s-0.53-0.41-0.98-0.41c-0.35,0-0.67,0.09-0.96,0.27s-0.51,0.45-0.64,0.8s-0.2,0.86-0.2,1.52
		v3.77H117.64z"/>
	<path class="st1" d="M134.04,11.12c-0.46,0.39-0.89,0.66-1.32,0.82s-0.87,0.24-1.36,0.24c-0.8,0-1.41-0.19-1.84-0.58
		s-0.64-0.89-0.64-1.49c0-0.36,0.08-0.68,0.24-0.97s0.37-0.53,0.64-0.71s0.56-0.31,0.89-0.4c0.24-0.06,0.61-0.13,1.09-0.18
		c0.99-0.12,1.73-0.26,2.19-0.42c0-0.17,0.01-0.28,0.01-0.32c0-0.5-0.12-0.85-0.35-1.06c-0.31-0.28-0.78-0.42-1.4-0.42
		c-0.58,0-1.01,0.1-1.28,0.3s-0.48,0.56-0.61,1.08l-1.2-0.16c0.11-0.52,0.29-0.93,0.54-1.25s0.61-0.56,1.09-0.73
		s1.02-0.26,1.65-0.26c0.62,0,1.12,0.07,1.51,0.22s0.67,0.33,0.85,0.55s0.31,0.5,0.38,0.84c0.04,0.21,0.06,0.59,0.06,1.13v1.64
		c0,1.14,0.03,1.87,0.08,2.17s0.16,0.59,0.31,0.87h-1.29C134.16,11.76,134.08,11.46,134.04,11.12z M133.94,8.37
		c-0.45,0.18-1.12,0.34-2.01,0.46c-0.51,0.07-0.86,0.15-1.07,0.25s-0.37,0.22-0.49,0.4s-0.17,0.37-0.17,0.58
		c0,0.33,0.12,0.6,0.37,0.82s0.61,0.33,1.09,0.33c0.47,0,0.9-0.1,1.26-0.31s0.64-0.49,0.81-0.85c0.13-0.28,0.2-0.69,0.2-1.23V8.37z"
		/>
	<path class="st1" d="M136.86,12.62l1.2,0.18c0.05,0.37,0.19,0.64,0.42,0.81c0.31,0.23,0.72,0.34,1.25,0.34
		c0.57,0,1.01-0.11,1.32-0.34s0.52-0.55,0.63-0.96c0.06-0.25,0.09-0.78,0.09-1.58c-0.54,0.63-1.21,0.95-2.01,0.95
		c-1,0-1.77-0.36-2.32-1.08s-0.82-1.58-0.82-2.59c0-0.69,0.13-1.33,0.38-1.92s0.61-1.04,1.09-1.36s1.04-0.48,1.68-0.48
		c0.86,0,1.56,0.35,2.12,1.04V4.75h1.13v6.28c0,1.13-0.12,1.93-0.35,2.4s-0.59,0.84-1.09,1.12s-1.11,0.41-1.84,0.41
		c-0.87,0-1.57-0.19-2.1-0.58S136.84,13.4,136.86,12.62z M137.88,8.25c0,0.95,0.19,1.65,0.57,2.08S139.3,11,139.87,11
		c0.56,0,1.04-0.22,1.42-0.65s0.57-1.12,0.57-2.05c0-0.89-0.2-1.56-0.59-2.01s-0.87-0.68-1.43-0.68c-0.55,0-1.01,0.22-1.39,0.67
		S137.88,7.38,137.88,8.25z"/>
	<path class="st1" d="M149.84,9.68l1.27,0.16c-0.2,0.74-0.57,1.32-1.11,1.73s-1.23,0.62-2.08,0.62c-1.06,0-1.9-0.33-2.53-0.98
		s-0.93-1.57-0.93-2.75c0-1.22,0.31-2.17,0.94-2.84s1.44-1.01,2.45-1.01c0.97,0,1.76,0.33,2.38,0.99s0.92,1.59,0.92,2.79
		c0,0.07,0,0.18-0.01,0.33h-5.41c0.05,0.8,0.27,1.41,0.68,1.83s0.91,0.64,1.52,0.64c0.45,0,0.84-0.12,1.16-0.36
		S149.66,10.2,149.84,9.68z M145.8,7.69h4.05c-0.05-0.61-0.21-1.07-0.46-1.37c-0.39-0.47-0.9-0.71-1.52-0.71
		c-0.56,0-1.04,0.19-1.43,0.57S145.84,7.05,145.8,7.69z"/>
	<path class="st1" d="M152.98,12.01v-1.4h1.4v1.4c0,0.52-0.09,0.93-0.27,1.25s-0.47,0.56-0.87,0.73l-0.34-0.53
		c0.26-0.11,0.45-0.28,0.57-0.5s0.19-0.54,0.21-0.95H152.98z"/>
	<path class="st1" d="M161.57,12.01h-1.14V1.99h1.23v3.58c0.52-0.65,1.18-0.98,1.99-0.98c0.45,0,0.87,0.09,1.27,0.27
		s0.73,0.43,0.98,0.76s0.46,0.72,0.6,1.18s0.22,0.95,0.22,1.48c0,1.24-0.31,2.21-0.92,2.88s-1.35,1.02-2.21,1.02
		c-0.86,0-1.53-0.36-2.02-1.07V12.01z M161.56,8.33c0,0.87,0.12,1.5,0.36,1.89c0.39,0.63,0.91,0.95,1.57,0.95
		c0.54,0,1-0.23,1.39-0.7s0.59-1.16,0.59-2.09c0-0.95-0.19-1.65-0.56-2.1s-0.83-0.68-1.36-0.68c-0.54,0-1,0.23-1.39,0.7
		S161.56,7.45,161.56,8.33z"/>
	<path class="st1" d="M172.98,12.01v-1.07c-0.56,0.82-1.33,1.23-2.3,1.23c-0.43,0-0.83-0.08-1.2-0.25s-0.65-0.37-0.83-0.62
		s-0.31-0.55-0.38-0.91c-0.05-0.24-0.08-0.62-0.08-1.15v-4.5h1.23v4.03c0,0.64,0.02,1.08,0.08,1.3c0.08,0.32,0.24,0.58,0.49,0.76
		s0.56,0.28,0.93,0.28s0.72-0.09,1.04-0.28s0.55-0.45,0.69-0.77s0.2-0.8,0.2-1.42V4.75h1.23v7.26H172.98z"/>
	<path class="st1" d="M178.7,10.91l0.18,1.09c-0.35,0.07-0.66,0.11-0.93,0.11c-0.45,0-0.79-0.07-1.04-0.21s-0.42-0.33-0.52-0.56
		s-0.15-0.71-0.15-1.45V5.71h-0.9V4.75h0.9v-1.8l1.22-0.74v2.54h1.24v0.96h-1.24v4.25c0,0.35,0.02,0.58,0.06,0.68
		s0.11,0.18,0.21,0.24s0.24,0.09,0.42,0.09C178.29,10.96,178.48,10.95,178.7,10.91z"/>
	<path class="st1" d="M186.48,10.91l0.18,1.09c-0.35,0.07-0.66,0.11-0.93,0.11c-0.45,0-0.79-0.07-1.04-0.21s-0.42-0.33-0.52-0.56
		s-0.15-0.71-0.15-1.45V5.71h-0.9V4.75h0.9v-1.8l1.22-0.74v2.54h1.24v0.96h-1.24v4.25c0,0.35,0.02,0.58,0.06,0.68
		s0.11,0.18,0.21,0.24s0.24,0.09,0.42,0.09C186.07,10.96,186.25,10.95,186.48,10.91z"/>
	<path class="st1" d="M187.68,12.01V1.99h1.23v3.6c0.57-0.67,1.3-1,2.17-1c0.54,0,1,0.11,1.4,0.32s0.68,0.5,0.85,0.88
		s0.26,0.92,0.26,1.63v4.6h-1.23v-4.6c0-0.62-0.13-1.06-0.4-1.34s-0.64-0.42-1.13-0.42c-0.36,0-0.71,0.09-1.03,0.28
		s-0.55,0.45-0.69,0.77s-0.21,0.77-0.21,1.34v3.97H187.68z"/>
	<path class="st1" d="M195.47,3.41V1.99h1.23v1.42H195.47z M195.47,12.01V4.75h1.23v7.26H195.47z"/>
	<path class="st1" d="M198.08,9.85l1.22-0.19c0.07,0.49,0.26,0.86,0.57,1.12s0.75,0.39,1.31,0.39c0.56,0,0.98-0.12,1.26-0.35
		s0.41-0.5,0.41-0.81c0-0.28-0.12-0.5-0.36-0.66c-0.17-0.11-0.59-0.25-1.26-0.42c-0.9-0.23-1.53-0.42-1.88-0.59s-0.61-0.4-0.79-0.69
		s-0.27-0.62-0.27-0.97c0-0.32,0.07-0.62,0.22-0.9s0.35-0.5,0.6-0.69c0.19-0.14,0.45-0.26,0.78-0.36s0.68-0.15,1.06-0.15
		c0.57,0,1.07,0.08,1.5,0.25s0.75,0.39,0.95,0.67s0.35,0.66,0.42,1.12l-1.2,0.16c-0.05-0.37-0.21-0.67-0.48-0.88
		s-0.63-0.31-1.11-0.31c-0.56,0-0.97,0.09-1.21,0.28s-0.36,0.41-0.36,0.66c0,0.16,0.05,0.3,0.15,0.43c0.1,0.13,0.26,0.24,0.47,0.33
		c0.12,0.05,0.49,0.15,1.09,0.31c0.87,0.23,1.48,0.42,1.82,0.57s0.61,0.36,0.81,0.65s0.29,0.63,0.29,1.05c0,0.41-0.12,0.8-0.36,1.16
		s-0.58,0.64-1.04,0.84s-0.96,0.3-1.53,0.3c-0.94,0-1.66-0.2-2.16-0.59S198.22,10.62,198.08,9.85z"/>
	<path class="st1" d="M209.01,8.38c0-1.34,0.37-2.34,1.12-2.99c0.62-0.54,1.39-0.81,2.28-0.81c1,0,1.81,0.33,2.45,0.98
		s0.95,1.56,0.95,2.71c0,0.93-0.14,1.67-0.42,2.2s-0.69,0.95-1.22,1.25s-1.12,0.44-1.75,0.44c-1.02,0-1.84-0.33-2.46-0.98
		S209.01,9.61,209.01,8.38z M210.27,8.38c0,0.93,0.2,1.63,0.61,2.09s0.92,0.69,1.53,0.69c0.61,0,1.12-0.23,1.52-0.7
		s0.61-1.17,0.61-2.13c0-0.9-0.2-1.58-0.61-2.04s-0.92-0.69-1.52-0.69c-0.62,0-1.13,0.23-1.53,0.69S210.27,7.45,210.27,8.38z"/>
	<path class="st1" d="M217.25,12.01V4.75h1.11v1.03c0.53-0.8,1.3-1.2,2.31-1.2c0.44,0,0.84,0.08,1.21,0.24s0.64,0.36,0.82,0.62
		s0.31,0.56,0.38,0.91c0.05,0.23,0.07,0.63,0.07,1.2v4.46h-1.23V7.6c0-0.5-0.05-0.88-0.14-1.12s-0.27-0.45-0.51-0.59
		s-0.53-0.22-0.86-0.22c-0.52,0-0.98,0.17-1.36,0.5s-0.57,0.96-0.57,1.89v3.96H217.25z"/>
	<path class="st1" d="M230.01,9.68l1.27,0.16c-0.2,0.74-0.57,1.32-1.11,1.73s-1.23,0.62-2.08,0.62c-1.06,0-1.9-0.33-2.53-0.98
		s-0.93-1.57-0.93-2.75c0-1.22,0.31-2.17,0.94-2.84s1.44-1.01,2.45-1.01c0.97,0,1.76,0.33,2.38,0.99s0.92,1.59,0.92,2.79
		c0,0.07,0,0.18-0.01,0.33h-5.41c0.05,0.8,0.27,1.41,0.68,1.83s0.91,0.64,1.52,0.64c0.45,0,0.84-0.12,1.16-0.36
		S229.82,10.2,230.01,9.68z M225.97,7.69h4.05c-0.05-0.61-0.21-1.07-0.46-1.37c-0.39-0.47-0.9-0.71-1.52-0.71
		c-0.56,0-1.04,0.19-1.43,0.57S226.01,7.05,225.97,7.69z"/>
	<path class="st1" d="M238.05,12.01l-2.22-7.26h1.27l1.16,4.19l0.43,1.56c0.02-0.08,0.14-0.58,0.38-1.5l1.16-4.25h1.26l1.09,4.21
		l0.36,1.39l0.42-1.4l1.24-4.2h1.2l-2.27,7.26h-1.28l-1.16-4.35l-0.28-1.24l-1.47,5.58H238.05z"/>
	<path class="st1" d="M251.56,11.12c-0.46,0.39-0.89,0.66-1.32,0.82s-0.87,0.24-1.36,0.24c-0.8,0-1.41-0.19-1.84-0.58
		s-0.64-0.89-0.64-1.49c0-0.36,0.08-0.68,0.24-0.97s0.37-0.53,0.64-0.71s0.56-0.31,0.89-0.4c0.24-0.06,0.61-0.13,1.09-0.18
		c0.99-0.12,1.73-0.26,2.19-0.42c0-0.17,0.01-0.28,0.01-0.32c0-0.5-0.12-0.85-0.35-1.06c-0.31-0.28-0.78-0.42-1.4-0.42
		c-0.58,0-1.01,0.1-1.28,0.3s-0.48,0.56-0.61,1.08l-1.2-0.16c0.11-0.52,0.29-0.93,0.54-1.25s0.61-0.56,1.09-0.73
		s1.02-0.26,1.65-0.26c0.62,0,1.12,0.07,1.51,0.22s0.67,0.33,0.85,0.55s0.31,0.5,0.38,0.84c0.04,0.21,0.06,0.59,0.06,1.13v1.64
		c0,1.14,0.03,1.87,0.08,2.17s0.16,0.59,0.31,0.87h-1.29C251.68,11.76,251.6,11.46,251.56,11.12z M251.46,8.37
		c-0.45,0.18-1.12,0.34-2.01,0.46c-0.51,0.07-0.86,0.15-1.07,0.25s-0.37,0.22-0.49,0.4s-0.17,0.37-0.17,0.58
		c0,0.33,0.12,0.6,0.37,0.82s0.61,0.33,1.09,0.33c0.47,0,0.9-0.1,1.26-0.31s0.64-0.49,0.81-0.85c0.13-0.28,0.2-0.69,0.2-1.23V8.37z"
		/>
	<path class="st1" d="M254.12,9.85l1.22-0.19c0.07,0.49,0.26,0.86,0.57,1.12s0.75,0.39,1.31,0.39c0.56,0,0.98-0.12,1.26-0.35
		s0.41-0.5,0.41-0.81c0-0.28-0.12-0.5-0.36-0.66c-0.17-0.11-0.59-0.25-1.26-0.42c-0.9-0.23-1.53-0.42-1.88-0.59s-0.61-0.4-0.79-0.69
		s-0.27-0.62-0.27-0.97c0-0.32,0.07-0.62,0.22-0.9s0.35-0.5,0.6-0.69c0.19-0.14,0.45-0.26,0.78-0.36s0.68-0.15,1.06-0.15
		c0.57,0,1.07,0.08,1.5,0.25s0.75,0.39,0.95,0.67s0.35,0.66,0.42,1.12l-1.2,0.16c-0.05-0.37-0.21-0.67-0.48-0.88
		s-0.63-0.31-1.11-0.31c-0.56,0-0.97,0.09-1.21,0.28s-0.36,0.41-0.36,0.66c0,0.16,0.05,0.3,0.15,0.43c0.1,0.13,0.26,0.24,0.47,0.33
		c0.12,0.05,0.49,0.15,1.09,0.31c0.87,0.23,1.48,0.42,1.82,0.57s0.61,0.36,0.81,0.65s0.29,0.63,0.29,1.05c0,0.41-0.12,0.8-0.36,1.16
		s-0.58,0.64-1.04,0.84s-0.96,0.3-1.53,0.3c-0.94,0-1.66-0.2-2.16-0.59S254.26,10.62,254.12,9.85z"/>
	<path class="st1" d="M270.24,9.35l1.21,0.16c-0.13,0.83-0.47,1.49-1.02,1.96s-1.21,0.71-2.01,0.71c-0.99,0-1.79-0.32-2.4-0.97
		s-0.91-1.58-0.91-2.79c0-0.78,0.13-1.47,0.39-2.06s0.66-1.03,1.19-1.32s1.11-0.44,1.73-0.44c0.79,0,1.43,0.2,1.93,0.6
		s0.82,0.96,0.96,1.7l-1.2,0.18c-0.11-0.49-0.32-0.85-0.6-1.1s-0.64-0.37-1.05-0.37c-0.62,0-1.12,0.22-1.51,0.67
		s-0.58,1.15-0.58,2.11c0,0.98,0.19,1.68,0.56,2.13s0.86,0.66,1.46,0.66c0.48,0,0.89-0.15,1.21-0.44S270.15,9.97,270.24,9.35z"/>
	<path class="st1" d="M272.04,8.38c0-1.34,0.37-2.34,1.12-2.99c0.62-0.54,1.39-0.81,2.28-0.81c1,0,1.81,0.33,2.45,0.98
		s0.95,1.56,0.95,2.71c0,0.93-0.14,1.67-0.42,2.2s-0.69,0.95-1.22,1.25s-1.12,0.44-1.75,0.44c-1.02,0-1.84-0.33-2.46-0.98
		S272.04,9.61,272.04,8.38z M273.31,8.38c0,0.93,0.2,1.63,0.61,2.09s0.92,0.69,1.53,0.69c0.61,0,1.12-0.23,1.52-0.7
		s0.61-1.17,0.61-2.13c0-0.9-0.2-1.58-0.61-2.04s-0.92-0.69-1.52-0.69c-0.62,0-1.13,0.23-1.53,0.69S273.31,7.45,273.31,8.38z"/>
	<path class="st1" d="M280.29,12.01V4.75h1.11v1.03c0.53-0.8,1.3-1.2,2.31-1.2c0.44,0,0.84,0.08,1.21,0.24s0.64,0.36,0.82,0.62
		s0.31,0.56,0.38,0.91c0.05,0.23,0.07,0.63,0.07,1.2v4.46h-1.23V7.6c0-0.5-0.05-0.88-0.14-1.12s-0.27-0.45-0.51-0.59
		s-0.53-0.22-0.86-0.22c-0.52,0-0.98,0.17-1.36,0.5s-0.57,0.96-0.57,1.89v3.96H280.29z"/>
	<path class="st1" d="M290.09,12.01l-2.76-7.26h1.3l1.56,4.35c0.17,0.47,0.32,0.96,0.46,1.46c0.11-0.38,0.26-0.84,0.46-1.38
		l1.61-4.43h1.26l-2.75,7.26H290.09z"/>
	<path class="st1" d="M300.04,9.68l1.27,0.16c-0.2,0.74-0.57,1.32-1.11,1.73s-1.23,0.62-2.08,0.62c-1.06,0-1.9-0.33-2.53-0.98
		s-0.93-1.57-0.93-2.75c0-1.22,0.31-2.17,0.94-2.84s1.44-1.01,2.45-1.01c0.97,0,1.76,0.33,2.38,0.99s0.92,1.59,0.92,2.79
		c0,0.07,0,0.18-0.01,0.33h-5.41c0.05,0.8,0.27,1.41,0.68,1.83s0.91,0.64,1.52,0.64c0.45,0,0.84-0.12,1.16-0.36
		S299.86,10.2,300.04,9.68z M296,7.69h4.05c-0.05-0.61-0.21-1.07-0.46-1.37c-0.39-0.47-0.9-0.71-1.52-0.71
		c-0.56,0-1.04,0.19-1.43,0.57S296.04,7.05,296,7.69z"/>
	<path class="st1" d="M302.85,12.01V4.75h1.11v1.1c0.28-0.52,0.54-0.85,0.78-1.02s0.5-0.25,0.79-0.25c0.41,0,0.84,0.13,1.26,0.4
		l-0.42,1.14c-0.3-0.18-0.6-0.27-0.9-0.27c-0.27,0-0.51,0.08-0.72,0.24s-0.37,0.39-0.46,0.67c-0.14,0.44-0.21,0.92-0.21,1.44v3.8
		H302.85z"/>
	<path class="st1" d="M310.21,10.91l0.18,1.09c-0.35,0.07-0.66,0.11-0.93,0.11c-0.45,0-0.79-0.07-1.04-0.21s-0.42-0.33-0.52-0.56
		s-0.15-0.71-0.15-1.45V5.71h-0.9V4.75h0.9v-1.8l1.22-0.74v2.54h1.24v0.96h-1.24v4.25c0,0.35,0.02,0.58,0.06,0.68
		s0.11,0.18,0.21,0.24s0.24,0.09,0.42,0.09C309.8,10.96,309.98,10.95,310.21,10.91z"/>
	<path class="st1" d="M316.38,9.68l1.27,0.16c-0.2,0.74-0.57,1.32-1.11,1.73s-1.23,0.62-2.08,0.62c-1.06,0-1.9-0.33-2.53-0.98
		S311,9.63,311,8.45c0-1.22,0.31-2.17,0.94-2.84s1.44-1.01,2.45-1.01c0.97,0,1.76,0.33,2.38,0.99s0.92,1.59,0.92,2.79
		c0,0.07,0,0.18-0.01,0.33h-5.41c0.05,0.8,0.27,1.41,0.68,1.83s0.91,0.64,1.52,0.64c0.45,0,0.84-0.12,1.16-0.36
		S316.19,10.2,316.38,9.68z M312.34,7.69h4.05c-0.05-0.61-0.21-1.07-0.46-1.37c-0.39-0.47-0.9-0.71-1.52-0.71
		c-0.56,0-1.04,0.19-1.43,0.57S312.38,7.05,312.34,7.69z"/>
	<path class="st1" d="M323.91,12.01V11.1c-0.46,0.72-1.14,1.08-2.03,1.08c-0.58,0-1.11-0.16-1.6-0.48s-0.86-0.76-1.13-1.34
		s-0.4-1.23-0.4-1.97c0-0.72,0.12-1.38,0.36-1.97s0.6-1.04,1.09-1.36s1.02-0.47,1.62-0.47c0.44,0,0.83,0.09,1.17,0.28
		s0.62,0.42,0.83,0.72v-3.6h1.22v10.02H323.91z M320.02,8.39c0,0.93,0.2,1.62,0.59,2.08s0.85,0.69,1.39,0.69
		c0.54,0,0.99-0.22,1.37-0.66s0.56-1.11,0.56-2.01c0-0.99-0.19-1.72-0.57-2.19s-0.85-0.7-1.42-0.7c-0.55,0-1,0.22-1.37,0.67
		S320.02,7.43,320.02,8.39z"/>
	<path class="st1" d="M333.56,10.91l0.18,1.09c-0.35,0.07-0.66,0.11-0.93,0.11c-0.45,0-0.79-0.07-1.04-0.21s-0.42-0.33-0.52-0.56
		s-0.15-0.71-0.15-1.45V5.71h-0.9V4.75h0.9v-1.8l1.22-0.74v2.54h1.24v0.96h-1.24v4.25c0,0.35,0.02,0.58,0.06,0.68
		s0.11,0.18,0.21,0.24s0.24,0.09,0.42,0.09C333.16,10.96,333.34,10.95,333.56,10.91z"/>
	<path class="st1" d="M334.3,8.38c0-1.34,0.37-2.34,1.12-2.99c0.62-0.54,1.39-0.81,2.28-0.81c1,0,1.81,0.33,2.45,0.98
		s0.95,1.56,0.95,2.71c0,0.93-0.14,1.67-0.42,2.2s-0.69,0.95-1.22,1.25s-1.12,0.44-1.75,0.44c-1.02,0-1.84-0.33-2.46-0.98
		S334.3,9.61,334.3,8.38z M335.57,8.38c0,0.93,0.2,1.63,0.61,2.09s0.92,0.69,1.53,0.69c0.61,0,1.12-0.23,1.52-0.7
		s0.61-1.17,0.61-2.13c0-0.9-0.2-1.58-0.61-2.04s-0.92-0.69-1.52-0.69c-0.62,0-1.13,0.23-1.53,0.69S335.57,7.45,335.57,8.38z"/>
	<path class="st1" d="M346.44,14.8V4.75h1.12V5.7c0.26-0.37,0.56-0.65,0.9-0.83s0.74-0.28,1.21-0.28c0.62,0,1.17,0.16,1.64,0.48
		c0.47,0.32,0.83,0.77,1.07,1.35s0.36,1.22,0.36,1.91c0,0.74-0.13,1.41-0.4,2.01c-0.27,0.59-0.65,1.05-1.16,1.37
		c-0.51,0.32-1.04,0.48-1.6,0.48c-0.41,0-0.78-0.09-1.1-0.26s-0.59-0.39-0.8-0.66v3.53H346.44z M347.55,8.43
		c0,0.93,0.19,1.62,0.57,2.07s0.84,0.67,1.37,0.67c0.55,0,1.02-0.23,1.4-0.69c0.39-0.46,0.58-1.18,0.58-2.15
		c0-0.93-0.19-1.62-0.57-2.08s-0.83-0.69-1.36-0.69c-0.52,0-0.99,0.25-1.39,0.73S347.55,7.49,347.55,8.43z"/>
	<path class="st1" d="M358.98,12.01v-1.07c-0.57,0.82-1.33,1.23-2.3,1.23c-0.43,0-0.83-0.08-1.2-0.25
		c-0.37-0.16-0.65-0.37-0.83-0.62c-0.18-0.25-0.31-0.55-0.38-0.91c-0.05-0.24-0.08-0.62-0.08-1.15v-4.5h1.23v4.03
		c0,0.64,0.03,1.08,0.08,1.3c0.08,0.32,0.24,0.58,0.49,0.76s0.56,0.28,0.93,0.28s0.72-0.09,1.04-0.28s0.55-0.45,0.69-0.77
		c0.13-0.33,0.2-0.8,0.2-1.42V4.75h1.23v7.26H358.98z"/>
	<path class="st1" d="M362,12.01V4.75h1.11v1.1c0.28-0.52,0.54-0.85,0.78-1.02c0.24-0.16,0.5-0.25,0.79-0.25
		c0.42,0,0.84,0.13,1.26,0.4l-0.42,1.14c-0.3-0.18-0.6-0.27-0.9-0.27c-0.27,0-0.51,0.08-0.72,0.24s-0.37,0.39-0.46,0.67
		c-0.14,0.44-0.21,0.92-0.21,1.44v3.8H362z"/>
	<path class="st1" d="M371.64,9.68l1.27,0.16c-0.2,0.74-0.57,1.32-1.11,1.73s-1.24,0.62-2.08,0.62c-1.06,0-1.9-0.33-2.53-0.98
		c-0.62-0.65-0.93-1.57-0.93-2.75c0-1.22,0.31-2.17,0.94-2.84s1.44-1.01,2.45-1.01c0.97,0,1.76,0.33,2.38,0.99s0.92,1.59,0.92,2.79
		c0,0.07,0,0.18-0.01,0.33h-5.41c0.05,0.8,0.27,1.41,0.68,1.83s0.91,0.64,1.52,0.64c0.45,0,0.84-0.12,1.16-0.36
		S371.46,10.2,371.64,9.68z M367.6,7.69h4.05c-0.05-0.61-0.21-1.07-0.46-1.37c-0.39-0.47-0.9-0.71-1.52-0.71
		c-0.57,0-1.04,0.19-1.42,0.57C367.86,6.55,367.64,7.05,367.6,7.69z"/>
	<path class="st1" d="M378.55,12.01V1.99h1.33v4.12h5.21V1.99h1.33v10.02h-1.33V7.29h-5.21v4.72H378.55z"/>
	<path class="st1" d="M391.17,12.01V3.18h-3.3V1.99h7.94v1.18h-3.32v8.84H391.17z"/>
	<path class="st1" d="M397.13,12.01V1.99h2l2.37,7.1c0.22,0.66,0.38,1.16,0.48,1.48c0.11-0.36,0.29-0.9,0.53-1.61l2.4-6.97h1.78
		v10.02h-1.28V3.63l-2.91,8.39h-1.2l-2.9-8.53v8.53H397.13z"/>
	<path class="st1" d="M408.78,12.01V1.99h1.33v8.84h4.94v1.18H408.78z"/>
	<path class="st1" d="M416.81,12.01v-1.4h1.4v1.4H416.81z"/>
</g>
<g>
</g>
<g>
</g>
<g>
</g>
<g>
</g>
<g>
</g>
<g>
</g>
<g>
</g>
<g>
</g>
<g>
</g>
<g>
</g>
<g>
</g>
<g>
</g>
<g>
</g>
<g>
</g>
<g>
</g>
</svg>
