<?xml version="1.0" encoding="utf-8"?>
<!-- Generator: Adobe Illustrator 17.0.0, SVG Export Plug-In . SVG Version: 6.00 Build 0)  -->
<!DOCTYPE svg PUBLIC "-//W3C//DTD SVG 1.1//EN" "http://www.w3.org/Graphics/SVG/1.1/DTD/svg11.dtd">
<svg version="1.1" id="Layer_1" xmlns="http://www.w3.org/2000/svg" xmlns:xlink="http://www.w3.org/1999/xlink" x="0px" y="0px"
	 width="60.59px" height="98.13px" viewBox="0 0 60.59 98.13" style="enable-background:new 0 0 60.59 98.13;" xml:space="preserve"
	>
<style type="text/css">
	.st0{opacity:0.8;}
	.st1{fill:#C0E0ED;}
	.st2{fill:#29ABE2;}
</style>
<g class="st0">
	<path class="st1" d="M0.93,55.84c3.56-22.92,17-53.75,43.08-55.73c23.32-1.98,17,22.92,11.07,36.76
		c-8.43,19.68-19.27,38.01-36.05,51.5c-3.52,2.83-7.57,6.48-11.36,8.87c-6.78,4.27-6.57-8.04-6.82-12.01
		C0.22,75.44-0.74,65.58,0.93,55.84z"/>
</g>
<g>
	<path class="st2" d="M34.87,42.82c-4.88,2.57-9.19,6.16-12.91,10.2c-0.46-2.35,1.98-5.3,2.76-7.61c1.29-3.78,2.49-7.55,3.91-11.29
		c1.48-3.92,3.24-7.72,5.05-11.49c1.04-2.07,5.11-6.86,3.91-9.18c-4.03,3.22-6.79,10.33-9.26,14.76c-2.8,5.37-5.13,10.84-7.66,16.33
		c-0.4-2.76-0.69-5.55-1.05-8.32c-0.31-2.44-0.08-5.64-1.02-7.92c-2.09,0.67-1.14,3.8-1.16,5.34c0,3.6-0.3,7.19-0.3,10.78
		c0,4.02,0.17,7.97,0.4,11.99c0.19,3.23-2.2,5.67-3.73,8.47c-1.76,3.23-3.26,6.59-4.69,9.98c-1.49,3.56-6.13,11.61-3.8,15.55
		c3.21,5.45,7.85-1.3,8.87-4.38c1.9-5.7,2.63-11.75,4.57-17.47c1.97-5.79,4.65-11.12,8.22-16.09c1.54-1.91,3.15-3.92,5.04-5.5
		c1.7-1.41,4.44-2.92,5.39-4.94C36.51,42.09,35.66,42.35,34.87,42.82C33.93,43.32,35.75,42.36,34.87,42.82z"/>
</g>
<g>
</g>
<g>
</g>
<g>
</g>
<g>
</g>
<g>
</g>
<g>
</g>
<g>
</g>
<g>
</g>
<g>
</g>
<g>
</g>
<g>
</g>
<g>
</g>
<g>
</g>
<g>
</g>
<g>
</g>
</svg>
