<?xml version="1.0" encoding="utf-8"?>
<!-- Generator: Adobe Illustrator 17.0.0, SVG Export Plug-In . SVG Version: 6.00 Build 0)  -->
<!DOCTYPE svg PUBLIC "-//W3C//DTD SVG 1.1//EN" "http://www.w3.org/Graphics/SVG/1.1/DTD/svg11.dtd">
<svg version="1.1" id="Layer_1" xmlns="http://www.w3.org/2000/svg" xmlns:xlink="http://www.w3.org/1999/xlink" x="0px" y="0px"
	 width="91.49px" height="13.04px" viewBox="0 0 91.49 13.04" style="enable-background:new 0 0 91.49 13.04;" xml:space="preserve"
	>
<g>
	<path d="M1.96,1.96v8.08H0.91V1.96H1.96z"/>
	<path d="M5.21,2.57v1.67h1.51v0.8H5.21v3.13C5.21,8.89,5.41,9.3,6,9.3c0.28,0,0.48-0.04,0.61-0.07l0.05,0.79
		c-0.2,0.08-0.53,0.14-0.94,0.14c-0.49,0-0.89-0.16-1.14-0.44c-0.3-0.31-0.41-0.83-0.41-1.51V5.04h-0.9v-0.8h0.9V2.85L5.21,2.57z"/>
	<path d="M14.59,9.83c-0.28,0.14-0.89,0.34-1.67,0.34c-1.75,0-2.89-1.19-2.89-2.96c0-1.79,1.22-3.08,3.12-3.08
		c0.62,0,1.18,0.16,1.46,0.3l-0.24,0.82c-0.25-0.14-0.65-0.28-1.22-0.28c-1.33,0-2.05,0.98-2.05,2.19c0,1.34,0.86,2.17,2.02,2.17
		c0.6,0,1-0.16,1.3-0.29L14.59,9.83z"/>
	<path d="M19.04,10.04l-0.08-0.73h-0.04c-0.32,0.46-0.95,0.86-1.77,0.86c-1.18,0-1.77-0.83-1.77-1.67c0-1.4,1.25-2.17,3.49-2.16
		V6.23c0-0.48-0.13-1.34-1.32-1.34c-0.54,0-1.1,0.17-1.51,0.43l-0.24-0.7c0.48-0.31,1.18-0.52,1.91-0.52c1.77,0,2.21,1.21,2.21,2.37
		v2.17c0,0.5,0.02,1,0.1,1.39H19.04z M18.89,7.08c-1.15-0.02-2.46,0.18-2.46,1.31c0,0.68,0.46,1.01,1,1.01
		c0.76,0,1.24-0.48,1.4-0.97c0.04-0.11,0.06-0.23,0.06-0.34V7.08z"/>
	<path d="M21.61,5.81c0-0.6-0.01-1.09-0.05-1.57h0.94l0.06,0.96h0.02c0.29-0.55,0.96-1.09,1.92-1.09c0.8,0,2.05,0.48,2.05,2.47v3.47
		H25.5V6.7c0-0.94-0.35-1.71-1.34-1.71c-0.7,0-1.24,0.49-1.42,1.08c-0.05,0.13-0.07,0.31-0.07,0.49v3.49h-1.06V5.81z"/>
	<path d="M30.81,5.81c0-0.6-0.01-1.09-0.05-1.57h0.92l0.05,0.94h0.04c0.32-0.55,0.86-1.07,1.82-1.07c0.79,0,1.39,0.48,1.64,1.16
		h0.02c0.18-0.32,0.41-0.58,0.65-0.76c0.35-0.26,0.73-0.41,1.28-0.41c0.77,0,1.91,0.5,1.91,2.52v3.42h-1.03V6.76
		c0-1.12-0.41-1.79-1.26-1.79c-0.6,0-1.07,0.44-1.25,0.96c-0.05,0.14-0.08,0.34-0.08,0.53v3.59h-1.03V6.57c0-0.92-0.41-1.6-1.21-1.6
		c-0.66,0-1.14,0.53-1.31,1.06c-0.06,0.16-0.08,0.34-0.08,0.52v3.5h-1.03V5.81z"/>
	<path d="M44.04,10.04l-0.08-0.73h-0.04c-0.32,0.46-0.95,0.86-1.77,0.86c-1.18,0-1.77-0.83-1.77-1.67c0-1.4,1.25-2.17,3.49-2.16
		V6.23c0-0.48-0.13-1.34-1.32-1.34c-0.54,0-1.1,0.17-1.51,0.43l-0.24-0.7c0.48-0.31,1.18-0.52,1.91-0.52c1.77,0,2.21,1.21,2.21,2.37
		v2.17c0,0.5,0.02,1,0.1,1.39H44.04z M43.88,7.08c-1.15-0.02-2.46,0.18-2.46,1.31c0,0.68,0.46,1.01,1,1.01
		c0.76,0,1.24-0.48,1.4-0.97c0.04-0.11,0.06-0.23,0.06-0.34V7.08z"/>
	<path d="M47.65,6.9h0.02c0.14-0.2,0.35-0.46,0.52-0.66l1.7-2h1.27l-2.24,2.39l2.55,3.42h-1.28l-2-2.78l-0.54,0.6v2.18h-1.04V1.53
		h1.04V6.9z"/>
	<path d="M52.82,7.33c0.02,1.43,0.94,2.01,1.99,2.01c0.76,0,1.21-0.13,1.61-0.3L56.6,9.8c-0.37,0.17-1.01,0.36-1.93,0.36
		c-1.79,0-2.85-1.18-2.85-2.93s1.03-3.13,2.72-3.13c1.9,0,2.4,1.67,2.4,2.73c0,0.22-0.02,0.38-0.04,0.49H52.82z M55.92,6.58
		c0.01-0.67-0.28-1.71-1.46-1.71c-1.07,0-1.54,0.98-1.62,1.71H55.92z"/>
	<path d="M60.79,1.53h1.06v3.62h0.02c0.17-0.3,0.43-0.56,0.76-0.74c0.31-0.18,0.68-0.3,1.08-0.3c0.78,0,2.03,0.48,2.03,2.48v3.45
		h-1.06V6.71c0-0.94-0.35-1.73-1.34-1.73c-0.68,0-1.22,0.48-1.42,1.06c-0.06,0.14-0.07,0.3-0.07,0.5v3.5h-1.06V1.53z"/>
	<path d="M72.7,7.09c0,2.15-1.49,3.08-2.89,3.08c-1.57,0-2.78-1.15-2.78-2.99c0-1.94,1.27-3.08,2.88-3.08
		C71.58,4.11,72.7,5.32,72.7,7.09z M68.1,7.15c0,1.27,0.73,2.23,1.76,2.23c1.01,0,1.76-0.95,1.76-2.25c0-0.98-0.49-2.23-1.74-2.23
		C68.64,4.9,68.1,6.05,68.1,7.15z"/>
	<path d="M74.04,5.81c0-0.6-0.01-1.09-0.05-1.57h0.94l0.06,0.96h0.02c0.29-0.55,0.96-1.09,1.92-1.09c0.8,0,2.05,0.48,2.05,2.47v3.47
		h-1.06V6.7c0-0.94-0.35-1.71-1.34-1.71c-0.7,0-1.24,0.49-1.42,1.08c-0.05,0.13-0.07,0.31-0.07,0.49v3.49h-1.06V5.81z"/>
	<path d="M81.29,7.33c0.02,1.43,0.94,2.01,1.99,2.01c0.76,0,1.21-0.13,1.61-0.3l0.18,0.76c-0.37,0.17-1.01,0.36-1.93,0.36
		c-1.79,0-2.85-1.18-2.85-2.93S81.31,4.11,83,4.11c1.9,0,2.4,1.67,2.4,2.73c0,0.22-0.02,0.38-0.04,0.49H81.29z M84.38,6.58
		c0.01-0.67-0.28-1.71-1.46-1.71c-1.07,0-1.54,0.98-1.62,1.71H84.38z"/>
	<path d="M87.09,4.24l1.27,3.43c0.13,0.38,0.28,0.84,0.37,1.19h0.02c0.11-0.35,0.23-0.79,0.37-1.21l1.15-3.41h1.12l-1.58,4.14
		c-0.76,1.99-1.27,3.01-1.99,3.63c-0.52,0.46-1.03,0.64-1.29,0.68l-0.26-0.89c0.26-0.08,0.61-0.25,0.92-0.52
		c0.29-0.23,0.65-0.64,0.89-1.18c0.05-0.11,0.08-0.19,0.08-0.25c0-0.06-0.02-0.14-0.07-0.28l-2.15-5.35H87.09z"/>
</g>
<g>
</g>
<g>
</g>
<g>
</g>
<g>
</g>
<g>
</g>
<g>
</g>
<g>
</g>
<g>
</g>
<g>
</g>
<g>
</g>
<g>
</g>
<g>
</g>
<g>
</g>
<g>
</g>
<g>
</g>
</svg>
