<?xml version="1.0" encoding="utf-8"?>
<!-- Generator: Adobe Illustrator 17.0.0, SVG Export Plug-In . SVG Version: 6.00 Build 0)  -->
<!DOCTYPE svg PUBLIC "-//W3C//DTD SVG 1.1//EN" "http://www.w3.org/Graphics/SVG/1.1/DTD/svg11.dtd">
<svg version="1.1" id="Layer_1" xmlns="http://www.w3.org/2000/svg" xmlns:xlink="http://www.w3.org/1999/xlink" x="0px" y="0px"
	 width="107.32px" height="65.47px" viewBox="0 0 107.32 65.47" style="enable-background:new 0 0 107.32 65.47;"
	 xml:space="preserve">
<style type="text/css">
	.st0{opacity:0.8;}
	.st1{fill:#C0E0ED;}
	.st2{fill:#29ABE2;}
</style>
<g class="st0">
	<path class="st1" d="M96.6,60.88c5.19-2.12,12.5-5.32,10.33-11.92c-1.48-4.5-6.38-8.49-9.74-11.55
		c-7.19-6.54-15.16-12.15-23.1-17.72C58.31,8.61,38.72-2.24,18.74,0.4c-8.3,1.19-17,5.93-18.58,15.41
		c-1.98,14.62,15.02,26.09,25.3,33.2C46.01,62.85,72.89,71.15,96.6,60.88z"/>
</g>
<g>
	<path class="st2" d="M99.68,46.04c5.69,6.26-1.99,10.22-7.77,9.97c-3.4-0.15-7.01-2.16-10.08-3.48c-4.27-1.84-8.43-3.95-12.43-6.31
		c-3.58-2.11-7.04-4.41-10.42-6.84c-3.11-2.24-4.92-4.36-8.88-4.12c-6.44,0.39-12.53,3.16-18.28,5.88
		c-0.08-0.12-0.15-0.24-0.23-0.36c5.1-3.83,10.43-7.55,16.54-9.57c-4.67-3.5-9.51-6.14-14.9-8.35c-4.48-1.84-9.35-3.59-13.19-6.63
		c0.05,0.04-1.74-1.25-1.74-1.45c0.01-0.33,0.52-0.85,0.81-0.68c1.59,0.95,3.24,1.71,4.99,2.3c4.79,1.62,9.94,1.93,14.7,3.53
		c-0.43-3.96,0.19-7.96,0.3-11.93c0.14-0.03,0.28-0.05,0.42-0.08c1.65,4.76,2.72,9.56,5.33,13.95c6.62,2.84,12.65,6.97,18.98,10.38
		c6.25,3.36,12.74,6.25,19.51,8.39C88.32,42.21,96.01,42,99.68,46.04C101.31,47.84,99.2,45.52,99.68,46.04z"/>
</g>
<g>
</g>
<g>
</g>
<g>
</g>
<g>
</g>
<g>
</g>
<g>
</g>
<g>
</g>
<g>
</g>
<g>
</g>
<g>
</g>
<g>
</g>
<g>
</g>
<g>
</g>
<g>
</g>
<g>
</g>
</svg>
