<?xml version="1.0" encoding="utf-8"?>
<!-- Generator: Adobe Illustrator 17.0.0, SVG Export Plug-In . SVG Version: 6.00 Build 0)  -->
<!DOCTYPE svg PUBLIC "-//W3C//DTD SVG 1.1//EN" "http://www.w3.org/Graphics/SVG/1.1/DTD/svg11.dtd">
<svg version="1.1" id="Layer_1" xmlns="http://www.w3.org/2000/svg" xmlns:xlink="http://www.w3.org/1999/xlink" x="0px" y="0px"
	 width="92.58px" height="15.67px" viewBox="0 0 92.58 15.67" style="enable-background:new 0 0 92.58 15.67;" xml:space="preserve"
	>
<style type="text/css">
	.st0{fill:#29ABE2;}
</style>
<g>
	<path class="st0" d="M2.8,2.25H2.37c-0.14,0-0.25,0.07-0.34,0.2c-0.09,0.13-0.18,0.5-0.28,1.09C1.71,3.8,1.64,3.96,1.55,4.03
		c-0.09,0.07-0.28,0.1-0.57,0.1c-0.27,0-0.44-0.02-0.52-0.07S0.34,3.91,0.34,3.77c0-0.08,0-0.16,0.01-0.25l0.11-1.59
		c0.01-0.19,0.06-0.31,0.13-0.37c0.07-0.06,0.26-0.09,0.57-0.09h6.92c0.2,0,0.32,0.02,0.37,0.05c0.04,0.04,0.08,0.17,0.1,0.4
		l0.16,1.41c0.01,0.11,0.02,0.22,0.02,0.33c0,0.14-0.02,0.24-0.07,0.31C8.61,4.06,8.46,4.1,8.21,4.1c-0.32,0-0.53-0.02-0.62-0.07
		C7.5,3.99,7.43,3.84,7.37,3.6c-0.1-0.4-0.21-0.72-0.33-0.97C6.92,2.38,6.77,2.25,6.6,2.25H6.31v8.78c0,0.25,0.15,0.42,0.45,0.52
		c0.13,0.04,0.21,0.09,0.25,0.15s0.06,0.18,0.06,0.36c0,0.23-0.03,0.37-0.08,0.41c-0.06,0.04-0.19,0.06-0.39,0.06H2.45
		c-0.16,0-0.27-0.02-0.32-0.07s-0.07-0.18-0.07-0.39c0-0.26,0.1-0.41,0.3-0.46c0.19-0.05,0.31-0.11,0.36-0.16s0.08-0.14,0.08-0.27
		V2.25z"/>
	<path class="st0" d="M13.18,4.05c0.96-0.65,1.81-0.97,2.54-0.97c0.54,0,1.01,0.15,1.41,0.44c0.4,0.29,0.6,0.68,0.6,1.16v6.52
		c0,0.17,0.07,0.29,0.2,0.36c0.19,0.1,0.28,0.26,0.28,0.45c0,0.22-0.02,0.36-0.07,0.42s-0.14,0.09-0.3,0.09h-2.4
		c-0.21,0-0.4-0.11-0.58-0.33s-0.26-0.48-0.26-0.78V5.04c0-0.12-0.06-0.23-0.17-0.32s-0.24-0.15-0.39-0.15
		c-0.24,0-0.53,0.1-0.87,0.31v6.31c0,0.15,0.08,0.28,0.25,0.4c0.17,0.12,0.25,0.23,0.25,0.31c0,0.31-0.01,0.49-0.04,0.54
		c-0.02,0.04-0.15,0.06-0.37,0.06H9.87c-0.14,0-0.24-0.02-0.29-0.06s-0.08-0.14-0.08-0.3c0-0.2,0.01-0.32,0.04-0.37
		s0.11-0.11,0.23-0.18c0.18-0.1,0.27-0.23,0.27-0.4V2.81c0-0.31-0.14-0.48-0.41-0.51C9.5,2.27,9.42,2.21,9.42,2.11V1.63
		c0-0.1,0.08-0.14,0.24-0.14h3.17c0.23,0,0.35,0.08,0.35,0.25V4.05z"/>
	<path class="st0" d="M18.94,3.85V3.4c0-0.15,0.13-0.23,0.38-0.23h3.01c0.21,0,0.32,0.08,0.32,0.23v7.86c0,0.11,0.01,0.18,0.03,0.21
		s0.07,0.06,0.17,0.09c0.22,0.06,0.33,0.21,0.33,0.42c0,0.25-0.02,0.4-0.05,0.45s-0.13,0.08-0.3,0.08h-3.65
		c-0.09-0.01-0.14-0.04-0.17-0.09s-0.04-0.17-0.04-0.38c0-0.25,0.08-0.39,0.25-0.43c0.2-0.05,0.3-0.14,0.3-0.27V4.53
		c0-0.26-0.14-0.42-0.41-0.48C19,4.03,18.94,3.96,18.94,3.85z M21.58,1.24c0.71,0,1.06,0.17,1.06,0.52c0,0.27-0.24,0.5-0.71,0.69
		c-0.47,0.19-1.01,0.28-1.62,0.28c-0.78,0-1.17-0.19-1.17-0.57c0-0.3,0.27-0.53,0.82-0.69C20.52,1.32,21.05,1.24,21.58,1.24z"/>
	<path class="st0" d="M28.92,3.34l0.52,1.89c0.01,0.06,0.02,0.11,0.02,0.16c0,0.13-0.17,0.19-0.51,0.19c-0.23,0-0.39-0.02-0.5-0.06
		c-0.1-0.04-0.22-0.15-0.35-0.33c-0.15-0.21-0.38-0.46-0.69-0.75c-0.31-0.29-0.58-0.43-0.83-0.43c-0.09,0-0.18,0.03-0.25,0.1
		s-0.11,0.14-0.11,0.23c0,0.23,0.46,0.89,1.38,1.97c0.79,0.94,1.33,1.68,1.61,2.22c0.28,0.54,0.42,1.14,0.42,1.82
		c0,0.71-0.21,1.27-0.64,1.67s-0.93,0.6-1.51,0.6c-0.36,0-0.75-0.1-1.15-0.29c-0.22-0.1-0.37-0.16-0.44-0.16
		c-0.09,0-0.14,0.05-0.15,0.16c-0.03,0.12-0.06,0.2-0.11,0.24s-0.21,0.05-0.49,0.05c-0.21,0-0.35-0.02-0.42-0.07
		c-0.06-0.05-0.11-0.13-0.13-0.24l-0.47-1.91c-0.02-0.09-0.03-0.15-0.03-0.17c0-0.13,0.21-0.19,0.63-0.19
		c0.22,0,0.37,0.02,0.46,0.06c0.08,0.04,0.19,0.16,0.33,0.36c0.49,0.74,0.96,1.11,1.4,1.11c0.28,0,0.42-0.12,0.42-0.37
		c0-0.22-0.11-0.49-0.32-0.81s-0.62-0.85-1.23-1.59c-0.64-0.78-1.1-1.44-1.39-1.97s-0.43-1.06-0.43-1.59c0-0.72,0.21-1.26,0.64-1.62
		c0.43-0.35,0.95-0.53,1.56-0.53c0.32,0,0.69,0.08,1.09,0.24c0.21,0.08,0.35,0.12,0.42,0.12c0.1,0,0.16-0.05,0.18-0.14
		c0.02-0.1,0.08-0.16,0.15-0.18c0.08-0.02,0.24-0.03,0.48-0.03c0.16,0,0.26,0.01,0.31,0.04C28.83,3.15,28.88,3.22,28.92,3.34z"/>
	<path class="st0" d="M35.13,3.85V3.4c0-0.15,0.13-0.23,0.38-0.23h3.01c0.21,0,0.32,0.08,0.32,0.23v7.86c0,0.11,0.01,0.18,0.03,0.21
		s0.07,0.06,0.17,0.09c0.22,0.06,0.33,0.21,0.33,0.42c0,0.25-0.02,0.4-0.05,0.45s-0.13,0.08-0.3,0.08h-3.65
		c-0.09-0.01-0.14-0.04-0.17-0.09s-0.04-0.17-0.04-0.38c0-0.25,0.08-0.39,0.25-0.43c0.2-0.05,0.3-0.14,0.3-0.27V4.53
		c0-0.26-0.14-0.42-0.41-0.48C35.18,4.03,35.13,3.96,35.13,3.85z M37.77,1.24c0.71,0,1.06,0.17,1.06,0.52c0,0.27-0.24,0.5-0.71,0.69
		c-0.47,0.19-1.01,0.28-1.62,0.28c-0.78,0-1.17-0.19-1.17-0.57c0-0.3,0.27-0.53,0.82-0.69C36.7,1.32,37.24,1.24,37.77,1.24z"/>
	<path class="st0" d="M45.1,3.34l0.52,1.89c0.01,0.06,0.02,0.11,0.02,0.16c0,0.13-0.17,0.19-0.51,0.19c-0.23,0-0.39-0.02-0.5-0.06
		c-0.1-0.04-0.22-0.15-0.35-0.33c-0.15-0.21-0.38-0.46-0.69-0.75C43.28,4.16,43,4.01,42.76,4.01c-0.09,0-0.18,0.03-0.25,0.1
		S42.4,4.25,42.4,4.33c0,0.23,0.46,0.89,1.38,1.97c0.79,0.94,1.33,1.68,1.61,2.22c0.28,0.54,0.42,1.14,0.42,1.82
		c0,0.71-0.21,1.27-0.64,1.67s-0.93,0.6-1.51,0.6c-0.36,0-0.75-0.1-1.15-0.29c-0.22-0.1-0.37-0.16-0.44-0.16
		c-0.09,0-0.14,0.05-0.15,0.16c-0.03,0.12-0.06,0.2-0.11,0.24s-0.21,0.05-0.49,0.05c-0.21,0-0.35-0.02-0.42-0.07
		c-0.06-0.05-0.11-0.13-0.13-0.24L40.3,10.4c-0.02-0.09-0.03-0.15-0.03-0.17c0-0.13,0.21-0.19,0.63-0.19c0.22,0,0.37,0.02,0.46,0.06
		c0.08,0.04,0.19,0.16,0.33,0.36c0.49,0.74,0.96,1.11,1.4,1.11c0.28,0,0.42-0.12,0.42-0.37c0-0.22-0.11-0.49-0.32-0.81
		s-0.62-0.85-1.23-1.59c-0.64-0.78-1.1-1.44-1.39-1.97s-0.43-1.06-0.43-1.59c0-0.72,0.21-1.26,0.64-1.62
		c0.43-0.35,0.95-0.53,1.56-0.53c0.32,0,0.69,0.08,1.09,0.24c0.21,0.08,0.35,0.12,0.42,0.12c0.1,0,0.16-0.05,0.18-0.14
		c0.02-0.1,0.08-0.16,0.15-0.18c0.08-0.02,0.24-0.03,0.48-0.03c0.16,0,0.26,0.01,0.31,0.04C45.02,3.15,45.06,3.22,45.1,3.34z"/>
	<path class="st0" d="M56.17,5.89V4.57c0-0.36-0.2-0.55-0.61-0.55c-0.56,0-0.84,0.28-0.84,0.83c0,0.31-0.05,0.53-0.15,0.66
		c-0.1,0.13-0.32,0.25-0.66,0.34s-0.71,0.14-1.1,0.14c-0.8,0-1.2-0.31-1.2-0.93c0-0.58,0.35-1.06,1.04-1.43s1.6-0.55,2.72-0.55
		c0.73,0,1.4,0.07,1.98,0.22c0.59,0.15,1.06,0.39,1.41,0.74c0.35,0.35,0.53,0.73,0.53,1.14v6.24c0.01,0.03,0.11,0.1,0.28,0.21
		c0.13,0.07,0.19,0.17,0.19,0.3c0,0.18-0.03,0.31-0.1,0.39c-0.07,0.08-0.24,0.14-0.5,0.21s-0.6,0.1-1,0.1
		c-0.49,0-0.9-0.06-1.23-0.19s-0.58-0.38-0.76-0.76c-0.55,0.41-0.99,0.67-1.33,0.79c-0.34,0.11-0.69,0.17-1.05,0.17
		c-0.8,0-1.41-0.23-1.85-0.68c-0.44-0.45-0.66-1.19-0.66-2.22c0-1.03,0.2-1.74,0.61-2.14c0.41-0.4,1.21-0.77,2.39-1.1
		C55.05,6.26,55.67,6.06,56.17,5.89z M56.17,6.78c-0.71,0.23-1.13,0.48-1.27,0.77c-0.14,0.28-0.21,0.92-0.21,1.92
		c0,0.73,0.06,1.2,0.17,1.39s0.31,0.29,0.58,0.29c0.48,0,0.73-0.29,0.73-0.87V6.78z"/>
	<path class="st0" d="M71.81,6.23c1.15,0.29,1.94,0.65,2.38,1.08c0.43,0.43,0.65,1.02,0.65,1.78c0,1.15-0.4,2.01-1.2,2.58
		s-2.03,0.85-3.7,0.85h-4.61c-0.19,0-0.28-0.07-0.28-0.21v-0.41c0-0.11,0.08-0.2,0.25-0.25c0.36-0.12,0.54-0.3,0.54-0.54V2.85
		c0-0.11-0.03-0.19-0.08-0.23c-0.05-0.04-0.2-0.1-0.45-0.19c-0.13-0.04-0.2-0.09-0.22-0.14s-0.03-0.17-0.03-0.37
		c0-0.17,0.03-0.29,0.1-0.35c0.07-0.06,0.18-0.09,0.34-0.09h5.17c1.24,0,2.2,0.23,2.86,0.69s1,1.05,1,1.76
		c0,0.59-0.26,1.09-0.79,1.49C73.21,5.82,72.57,6.09,71.81,6.23z M69.34,2.26v3.59h0.5c0.31,0,0.56-0.07,0.74-0.2
		c0.18-0.13,0.28-0.35,0.31-0.66c0.03-0.31,0.04-0.7,0.04-1.17c0-0.66-0.09-1.08-0.26-1.27s-0.45-0.29-0.83-0.29H69.34z M69.34,6.62
		v5.11c0.58,0,0.97-0.06,1.16-0.17s0.31-0.34,0.35-0.68s0.05-0.91,0.05-1.71c0-0.16-0.01-0.54-0.03-1.12
		c-0.02-0.58-0.06-0.93-0.11-1.05s-0.16-0.21-0.3-0.28c-0.14-0.07-0.35-0.1-0.63-0.1H69.34z"/>
	<path class="st0" d="M79.26,7.71v2.8c0,0.37,0.1,0.66,0.3,0.87s0.45,0.31,0.76,0.31c0.48,0,0.86-0.15,1.15-0.44
		c0.29-0.29,0.44-0.7,0.46-1.21c0.01-0.27,0.04-0.44,0.11-0.49s0.29-0.08,0.68-0.08c0.34,0,0.55,0.02,0.65,0.08
		c0.09,0.05,0.14,0.18,0.14,0.38c0,0.7-0.31,1.33-0.94,1.87c-0.63,0.55-1.46,0.82-2.5,0.82c-1.19,0-2.2-0.39-3.02-1.17
		c-0.83-0.78-1.24-1.96-1.24-3.53s0.38-2.77,1.15-3.59c0.77-0.82,1.77-1.23,3.02-1.23c1.07,0,1.93,0.35,2.57,1.04
		c0.65,0.69,0.97,1.68,0.97,2.95v0.64H79.26z M80.53,6.86V4.59c0-0.43-0.21-0.64-0.63-0.64c-0.43,0-0.64,0.21-0.64,0.64v2.26H80.53z
		"/>
	<path class="st0" d="M87.9,7.71v2.8c0,0.37,0.1,0.66,0.3,0.87s0.45,0.31,0.76,0.31c0.48,0,0.86-0.15,1.15-0.44
		c0.29-0.29,0.44-0.7,0.46-1.21c0.01-0.27,0.04-0.44,0.11-0.49s0.29-0.08,0.68-0.08c0.34,0,0.55,0.02,0.65,0.08
		c0.09,0.05,0.14,0.18,0.14,0.38c0,0.7-0.31,1.33-0.94,1.87c-0.63,0.55-1.46,0.82-2.5,0.82c-1.19,0-2.2-0.39-3.02-1.17
		c-0.83-0.78-1.24-1.96-1.24-3.53s0.38-2.77,1.15-3.59c0.77-0.82,1.77-1.23,3.02-1.23c1.07,0,1.93,0.35,2.57,1.04
		c0.65,0.69,0.97,1.68,0.97,2.95v0.64H87.9z M89.18,6.86V4.59c0-0.43-0.21-0.64-0.63-0.64c-0.43,0-0.64,0.21-0.64,0.64v2.26H89.18z"
		/>
</g>
<g>
</g>
<g>
</g>
<g>
</g>
<g>
</g>
<g>
</g>
<g>
</g>
<g>
</g>
<g>
</g>
<g>
</g>
<g>
</g>
<g>
</g>
<g>
</g>
<g>
</g>
<g>
</g>
<g>
</g>
</svg>
